<svg width="28" height="28" viewBox="0 0 28 28" fill="none" xmlns="http://www.w3.org/2000/svg">
<rect width="28" height="28" fill="#E5E5E5"/>
<g id="Not Logged In - Desktop" clip-path="url(#clip0_0_1)">
<rect width="1440" height="2477" transform="translate(-844 -1392)" fill="white"/>
<g id="Group 7">
<rect id="Rectangle 4" x="-644.5" y="-276.5" width="693" height="473" rx="4.5" fill="white" stroke="#E0E0E0"/>
<g id="baseline-more_vert-24px">
<path id="Vector" d="M18.6667 14C18.6667 15.2833 19.7167 16.3333 21 16.3333C22.2834 16.3333 23.3334 15.2833 23.3334 14C23.3334 12.7166 22.2834 11.6666 21 11.6666C19.7167 11.6666 18.6667 12.7166 18.6667 14ZM16.3334 14C16.3334 12.7166 15.2834 11.6666 14 11.6666C12.7167 11.6666 11.6667 12.7166 11.6667 14C11.6667 15.2833 12.7167 16.3333 14 16.3333C15.2834 16.3333 16.3334 15.2833 16.3334 14ZM9.33337 14C9.33337 12.7166 8.28337 11.6666 7.00004 11.6666C5.71671 11.6666 4.66671 12.7166 4.66671 14C4.66671 15.2833 5.71671 16.3333 7.00004 16.3333C8.28337 16.3333 9.33337 15.2833 9.33337 14Z" fill="black"/>
</g>
</g>
</g>
<defs>
<clipPath id="clip0_0_1">
<rect width="1440" height="2477" fill="white" transform="translate(-844 -1392)"/>
</clipPath>
</defs>
</svg>
